%YAML 1.1
%TAG !u! tag:unity3d.com,2011:
--- !u!43 &4300000
Mesh:
  m_ObjectHideFlags: 0
  m_CorrespondingSourceObject: {fileID: 0}
  m_PrefabInstance: {fileID: 0}
  m_PrefabAsset: {fileID: 0}
  m_Name: 255
  serializedVersion: 12
  m_SubMeshes:
  - serializedVersion: 2
    firstByte: 0
    indexCount: 30
    topology: 0
    baseVertex: 0
    firstVertex: 0
    vertexCount: 11
    localAABB:
      m_Center: {x: 117.1875, y: 1.4420435, z: 117.1875}
      m_Extent: {x: 7.8125, y: 0.8560703, z: 7.8125}
  m_Shapes:
    vertices: []
    shapes: []
    channels: []
    fullWeights: []
  m_BindPose: []
  m_BoneNameHashes: 
  m_RootBoneNameHash: 0
  m_BonesAABB: []
  m_VariableBoneCountWeights:
    m_Data: 
  m_MeshCompression: 0
  m_IsReadable: 1
  m_KeepVertices: 1
  m_KeepIndices: 1
  m_IndexFormat: 0
  m_IndexBuffer: 020001000400050000000400080009000500040000000200060003000700070003000000000009000a0009000000050000000a000700000003000200
  m_VertexData:
    serializedVersion: 3
    m_VertexCount: 11
    m_Channels:
    - stream: 0
      offset: 0
      format: 0
      dimension: 3
    - stream: 0
      offset: 12
      format: 0
      dimension: 3
    - stream: 0
      offset: 0
      format: 0
      dimension: 0
    - stream: 0
      offset: 0
      format: 0
      dimension: 0
    - stream: 0
      offset: 24
      format: 0
      dimension: 2
    - stream: 0
      offset: 32
      format: 0
      dimension: 2
    - stream: 0
      offset: 0
      format: 0
      dimension: 0
    - stream: 0
      offset: 0
      format: 0
      dimension: 0
    - stream: 0
      offset: 0
      format: 0
      dimension: 0
    - stream: 0
      offset: 0
      format: 0
      dimension: 0
    - stream: 0
      offset: 0
      format: 0
      dimension: 0
    - stream: 0
      offset: 0
      format: 0
      dimension: 0
    - stream: 0
      offset: 0
      format: 0
      dimension: 0
    - stream: 0
      offset: 0
      format: 0
      dimension: 0
    m_DataSize: 440
    _typelessdata: 0060ea42f7dabd3f0060ea42af99523d03427f3f14bf653d0000783f0000783f0000783f0000783f00c0da424c14134000c0da425f6df83cbb2d7f3f24b4973d0000703f0000703f0000703f0000703f0096e142a8d9094000c0da42ed851d3d40977e3f0616c63d0080733f0000703f0080733f0000703f003cf042a4ece83f00c0da4221897f3da4c17e3f99ac973d00007b3f0000703f00007b3f0000703f00c0da42f4f1fc3f0096e142395dca3c46027f3f601daa3d0000703f0080733f0000703f0080733f00c0da42e8f2b93f003cf042760c263b48537f3f0204943d0000703f00007b3f0000703f00007b3f0000fa42f412bd3f00c0da4218b0f93c5dcf7f3fd8f0c03c0000803f0000703f0000803f0000703f0000fa4228ff893f00e9e84259d3703de82a7f3fe4e0603d0000803f0040773f0000803f0040773f00c0da422fda8b3f0000fa420000000031da7f3f291c0b3d0000703f0000803f0000703f0000803f00e9e842cc2d733f0000fa42e4d6f83cc22f7f3f3523913d0040773f0000803f0040773f0000803f0000fa425802163f0000fa42fcd3523c26f57f3ffcd3523c0000803f0000803f0000803f0000803f
  m_CompressedMesh:
    m_Vertices:
      m_NumItems: 0
      m_Range: 0
      m_Start: 0
      m_Data: 
      m_BitSize: 0
    m_UV:
      m_NumItems: 0
      m_Range: 0
      m_Start: 0
      m_Data: 
      m_BitSize: 0
    m_Normals:
      m_NumItems: 0
      m_Range: 0
      m_Start: 0
      m_Data: 
      m_BitSize: 0
    m_Tangents:
      m_NumItems: 0
      m_Range: 0
      m_Start: 0
      m_Data: 
      m_BitSize: 0
    m_Weights:
      m_NumItems: 0
      m_Data: 
      m_BitSize: 0
    m_NormalSigns:
      m_NumItems: 0
      m_Data: 
      m_BitSize: 0
    m_TangentSigns:
      m_NumItems: 0
      m_Data: 
      m_BitSize: 0
    m_FloatColors:
      m_NumItems: 0
      m_Range: 0
      m_Start: 0
      m_Data: 
      m_BitSize: 0
    m_BoneIndices:
      m_NumItems: 0
      m_Data: 
      m_BitSize: 0
    m_Triangles:
      m_NumItems: 0
      m_Data: 
      m_BitSize: 0
    m_UVInfo: 0
  m_LocalAABB:
    m_Center: {x: 117.1875, y: 1.4420435, z: 117.1875}
    m_Extent: {x: 7.8125, y: 0.8560703, z: 7.8125}
  m_MeshUsageFlags: 0
  m_CookingOptions: 30
  m_BakedConvexCollisionMesh: 
  m_BakedTriangleCollisionMesh: 
  'm_MeshMetrics[0]': 1
  'm_MeshMetrics[1]': 1
  m_MeshOptimizationFlags: 1
  m_StreamData:
    serializedVersion: 2
    offset: 0
    size: 0
    path: 
  m_MeshLodInfo:
    serializedVersion: 2
    m_LodSelectionCurve:
      serializedVersion: 1
      m_LodSlope: 0
      m_LodBias: 0
    m_NumLevels: 1
    m_SubMeshes:
    - serializedVersion: 2
      m_Levels:
      - serializedVersion: 1
        m_IndexStart: 0
        m_IndexCount: 0
